{
	"patcher" : 	{
		"fileversion" : 1,
		"rect" : [ 10.0, 59.0, 671.0, 300.0 ],
		"bglocked" : 0,
		"defrect" : [ 10.0, 59.0, 671.0, 300.0 ],
		"openrect" : [ 0.0, 0.0, 0.0, 0.0 ],
		"openinpresentation" : 0,
		"default_fontsize" : 10.0,
		"default_fontface" : 0,
		"default_fontname" : "Lucida Sans Regular",
		"gridonopen" : 0,
		"gridsize" : [ 5.0, 5.0 ],
		"gridsnaponopen" : 0,
		"toolbarvisible" : 1,
		"boxanimatetime" : 200,
		"imprint" : 0,
		"metadata" : [  ],
		"boxes" : [ 			{
				"box" : 				{
					"maxclass" : "message",
					"text" : "0",
					"patching_rect" : [ 461.0, 195.0, 16.0, 17.0 ],
					"id" : "obj-1",
					"fontname" : "Geneva",
					"numoutlets" : 1,
					"outlettype" : [ "" ],
					"fontsize" : 9.0,
					"numinlets" : 2
				}

			}
, 			{
				"box" : 				{
					"maxclass" : "number",
					"patching_rect" : [ 479.0, 267.0, 48.0, 19.0 ],
					"id" : "obj-2",
					"fontname" : "Geneva",
					"numoutlets" : 2,
					"triscale" : 0.9,
					"outlettype" : [ "int", "bang" ],
					"htextcolor" : [ 0.870588, 0.870588, 0.870588, 1.0 ],
					"fontsize" : 9.0,
					"bgcolor" : [ 0.866667, 0.866667, 0.866667, 1.0 ],
					"numinlets" : 1
				}

			}
, 			{
				"box" : 				{
					"maxclass" : "newobj",
					"text" : "t b",
					"patching_rect" : [ 506.0, 174.0, 25.0, 19.0 ],
					"id" : "obj-3",
					"fontname" : "Geneva",
					"numoutlets" : 1,
					"outlettype" : [ "bang" ],
					"fontsize" : 9.0,
					"numinlets" : 1
				}

			}
, 			{
				"box" : 				{
					"maxclass" : "message",
					"text" : "0 1",
					"patching_rect" : [ 506.0, 195.0, 23.0, 17.0 ],
					"id" : "obj-4",
					"fontname" : "Geneva",
					"numoutlets" : 1,
					"outlettype" : [ "" ],
					"fontsize" : 9.0,
					"numinlets" : 2
				}

			}
, 			{
				"box" : 				{
					"maxclass" : "led",
					"patching_rect" : [ 509.0, 241.0, 17.0, 17.0 ],
					"id" : "obj-5",
					"numoutlets" : 1,
					"outlettype" : [ "int" ],
					"bgcolor" : [ 0.35294, 0.35294, 0.35294, 1.0 ],
					"numinlets" : 1
				}

			}
, 			{
				"box" : 				{
					"maxclass" : "newobj",
					"text" : "unpack",
					"patching_rect" : [ 479.0, 218.0, 49.0, 19.0 ],
					"id" : "obj-6",
					"fontname" : "Geneva",
					"numoutlets" : 2,
					"outlettype" : [ "int", "int" ],
					"fontsize" : 9.0,
					"numinlets" : 1
				}

			}
, 			{
				"box" : 				{
					"maxclass" : "message",
					"text" : "1 0",
					"patching_rect" : [ 479.0, 195.0, 23.0, 17.0 ],
					"id" : "obj-7",
					"fontname" : "Geneva",
					"numoutlets" : 1,
					"outlettype" : [ "" ],
					"fontsize" : 9.0,
					"numinlets" : 2
				}

			}
, 			{
				"box" : 				{
					"maxclass" : "led",
					"oncolor" : [ 0.0, 1.0, 0.0, 1.0 ],
					"patching_rect" : [ 479.0, 241.0, 17.0, 17.0 ],
					"id" : "obj-8",
					"numoutlets" : 1,
					"outlettype" : [ "int" ],
					"bgcolor" : [ 0.35294, 0.35294, 0.35294, 1.0 ],
					"offcolor" : [ 0.0, 0.266667, 0.0, 1.0 ],
					"numinlets" : 1
				}

			}
, 			{
				"box" : 				{
					"maxclass" : "newobj",
					"text" : "sel 0 -1",
					"patching_rect" : [ 479.0, 152.0, 46.0, 19.0 ],
					"id" : "obj-9",
					"fontname" : "Geneva",
					"numoutlets" : 3,
					"outlettype" : [ "bang", "bang", "" ],
					"fontsize" : 9.0,
					"numinlets" : 1
				}

			}
, 			{
				"box" : 				{
					"maxclass" : "comment",
					"text" : "remainder flag/value: if divisible by only primes up to 31, outputs 0 for positive integer input, -1 for negative integer input, otherwise outputs the remainder once the 31-limit primes have been factored out",
					"linecount" : 10,
					"patching_rect" : [ 540.0, 130.0, 107.0, 127.0 ],
					"id" : "obj-10",
					"fontname" : "Geneva",
					"numoutlets" : 0,
					"fontsize" : 9.0,
					"numinlets" : 1
				}

			}
, 			{
				"box" : 				{
					"maxclass" : "comment",
					"text" : "31^",
					"patching_rect" : [ 437.0, 155.0, 26.0, 19.0 ],
					"id" : "obj-11",
					"fontname" : "Geneva",
					"numoutlets" : 0,
					"fontsize" : 9.0,
					"numinlets" : 1
				}

			}
, 			{
				"box" : 				{
					"maxclass" : "comment",
					"text" : "29^",
					"patching_rect" : [ 395.0, 155.0, 26.0, 19.0 ],
					"id" : "obj-12",
					"fontname" : "Geneva",
					"numoutlets" : 0,
					"fontsize" : 9.0,
					"numinlets" : 1
				}

			}
, 			{
				"box" : 				{
					"maxclass" : "comment",
					"text" : "23^",
					"patching_rect" : [ 353.0, 155.0, 26.0, 19.0 ],
					"id" : "obj-13",
					"fontname" : "Geneva",
					"numoutlets" : 0,
					"fontsize" : 9.0,
					"numinlets" : 1
				}

			}
, 			{
				"box" : 				{
					"maxclass" : "comment",
					"text" : "19^",
					"patching_rect" : [ 311.0, 155.0, 26.0, 19.0 ],
					"id" : "obj-14",
					"fontname" : "Geneva",
					"numoutlets" : 0,
					"fontsize" : 9.0,
					"numinlets" : 1
				}

			}
, 			{
				"box" : 				{
					"maxclass" : "comment",
					"text" : "17^",
					"patching_rect" : [ 269.0, 155.0, 26.0, 19.0 ],
					"id" : "obj-15",
					"fontname" : "Geneva",
					"numoutlets" : 0,
					"fontsize" : 9.0,
					"numinlets" : 1
				}

			}
, 			{
				"box" : 				{
					"maxclass" : "comment",
					"text" : "13^",
					"patching_rect" : [ 227.0, 155.0, 26.0, 19.0 ],
					"id" : "obj-16",
					"fontname" : "Geneva",
					"numoutlets" : 0,
					"fontsize" : 9.0,
					"numinlets" : 1
				}

			}
, 			{
				"box" : 				{
					"maxclass" : "comment",
					"text" : "11^",
					"patching_rect" : [ 185.0, 155.0, 26.0, 19.0 ],
					"id" : "obj-17",
					"fontname" : "Geneva",
					"numoutlets" : 0,
					"fontsize" : 9.0,
					"numinlets" : 1
				}

			}
, 			{
				"box" : 				{
					"maxclass" : "comment",
					"text" : "7^",
					"patching_rect" : [ 143.0, 155.0, 21.0, 19.0 ],
					"id" : "obj-18",
					"fontname" : "Geneva",
					"numoutlets" : 0,
					"fontsize" : 9.0,
					"numinlets" : 1
				}

			}
, 			{
				"box" : 				{
					"maxclass" : "comment",
					"text" : "5^",
					"patching_rect" : [ 101.0, 155.0, 21.0, 19.0 ],
					"id" : "obj-19",
					"fontname" : "Geneva",
					"numoutlets" : 0,
					"fontsize" : 9.0,
					"numinlets" : 1
				}

			}
, 			{
				"box" : 				{
					"maxclass" : "comment",
					"text" : "3^",
					"patching_rect" : [ 59.0, 155.0, 21.0, 19.0 ],
					"id" : "obj-20",
					"fontname" : "Geneva",
					"numoutlets" : 0,
					"fontsize" : 9.0,
					"numinlets" : 1
				}

			}
, 			{
				"box" : 				{
					"maxclass" : "comment",
					"text" : "pf",
					"patching_rect" : [ 14.0, 14.0, 106.0, 31.0 ],
					"id" : "obj-21",
					"fontname" : "Geneva",
					"numoutlets" : 0,
					"frgb" : [ 0.082353, 0.219608, 0.035294, 1.0 ],
					"fontsize" : 18.0,
					"textcolor" : [ 0.082353, 0.219608, 0.035294, 1.0 ],
					"numinlets" : 1
				}

			}
, 			{
				"box" : 				{
					"maxclass" : "comment",
					"text" : "determines the 31-limit prime factors of a number",
					"patching_rect" : [ 14.0, 39.0, 292.0, 19.0 ],
					"id" : "obj-22",
					"fontname" : "Geneva",
					"numoutlets" : 0,
					"fontsize" : 9.0,
					"numinlets" : 1
				}

			}
, 			{
				"box" : 				{
					"maxclass" : "panel",
					"patching_rect" : [ 9.0, 9.0, 653.0, 52.0 ],
					"id" : "obj-23",
					"numoutlets" : 0,
					"bgcolor" : [ 1.0, 0.968627, 0.811765, 1.0 ],
					"rounded" : 0,
					"numinlets" : 1
				}

			}
, 			{
				"box" : 				{
					"maxclass" : "number",
					"patching_rect" : [ 479.0, 131.0, 35.0, 19.0 ],
					"id" : "obj-24",
					"fontname" : "Geneva",
					"numoutlets" : 2,
					"triscale" : 0.9,
					"outlettype" : [ "int", "bang" ],
					"htextcolor" : [ 0.870588, 0.870588, 0.870588, 1.0 ],
					"fontsize" : 9.0,
					"bgcolor" : [ 0.866667, 0.866667, 0.866667, 1.0 ],
					"numinlets" : 1
				}

			}
, 			{
				"box" : 				{
					"maxclass" : "number",
					"patching_rect" : [ 437.0, 131.0, 35.0, 19.0 ],
					"id" : "obj-25",
					"fontname" : "Geneva",
					"numoutlets" : 2,
					"triscale" : 0.9,
					"outlettype" : [ "int", "bang" ],
					"htextcolor" : [ 0.870588, 0.870588, 0.870588, 1.0 ],
					"fontsize" : 9.0,
					"bgcolor" : [ 0.866667, 0.866667, 0.866667, 1.0 ],
					"numinlets" : 1
				}

			}
, 			{
				"box" : 				{
					"maxclass" : "number",
					"patching_rect" : [ 395.0, 131.0, 35.0, 19.0 ],
					"id" : "obj-26",
					"fontname" : "Geneva",
					"numoutlets" : 2,
					"triscale" : 0.9,
					"outlettype" : [ "int", "bang" ],
					"htextcolor" : [ 0.870588, 0.870588, 0.870588, 1.0 ],
					"fontsize" : 9.0,
					"bgcolor" : [ 0.866667, 0.866667, 0.866667, 1.0 ],
					"numinlets" : 1
				}

			}
, 			{
				"box" : 				{
					"maxclass" : "number",
					"patching_rect" : [ 353.0, 131.0, 35.0, 19.0 ],
					"id" : "obj-27",
					"fontname" : "Geneva",
					"numoutlets" : 2,
					"triscale" : 0.9,
					"outlettype" : [ "int", "bang" ],
					"htextcolor" : [ 0.870588, 0.870588, 0.870588, 1.0 ],
					"fontsize" : 9.0,
					"bgcolor" : [ 0.866667, 0.866667, 0.866667, 1.0 ],
					"numinlets" : 1
				}

			}
, 			{
				"box" : 				{
					"maxclass" : "number",
					"patching_rect" : [ 311.0, 131.0, 35.0, 19.0 ],
					"id" : "obj-28",
					"fontname" : "Geneva",
					"numoutlets" : 2,
					"triscale" : 0.9,
					"outlettype" : [ "int", "bang" ],
					"htextcolor" : [ 0.870588, 0.870588, 0.870588, 1.0 ],
					"fontsize" : 9.0,
					"bgcolor" : [ 0.866667, 0.866667, 0.866667, 1.0 ],
					"numinlets" : 1
				}

			}
, 			{
				"box" : 				{
					"maxclass" : "number",
					"patching_rect" : [ 269.0, 131.0, 35.0, 19.0 ],
					"id" : "obj-29",
					"fontname" : "Geneva",
					"numoutlets" : 2,
					"triscale" : 0.9,
					"outlettype" : [ "int", "bang" ],
					"htextcolor" : [ 0.870588, 0.870588, 0.870588, 1.0 ],
					"fontsize" : 9.0,
					"bgcolor" : [ 0.866667, 0.866667, 0.866667, 1.0 ],
					"numinlets" : 1
				}

			}
, 			{
				"box" : 				{
					"maxclass" : "number",
					"patching_rect" : [ 227.0, 131.0, 35.0, 19.0 ],
					"id" : "obj-30",
					"fontname" : "Geneva",
					"numoutlets" : 2,
					"triscale" : 0.9,
					"outlettype" : [ "int", "bang" ],
					"htextcolor" : [ 0.870588, 0.870588, 0.870588, 1.0 ],
					"fontsize" : 9.0,
					"bgcolor" : [ 0.866667, 0.866667, 0.866667, 1.0 ],
					"numinlets" : 1
				}

			}
, 			{
				"box" : 				{
					"maxclass" : "number",
					"patching_rect" : [ 185.0, 131.0, 35.0, 19.0 ],
					"id" : "obj-31",
					"fontname" : "Geneva",
					"numoutlets" : 2,
					"triscale" : 0.9,
					"outlettype" : [ "int", "bang" ],
					"htextcolor" : [ 0.870588, 0.870588, 0.870588, 1.0 ],
					"fontsize" : 9.0,
					"bgcolor" : [ 0.866667, 0.866667, 0.866667, 1.0 ],
					"numinlets" : 1
				}

			}
, 			{
				"box" : 				{
					"maxclass" : "number",
					"patching_rect" : [ 143.0, 131.0, 35.0, 19.0 ],
					"id" : "obj-32",
					"fontname" : "Geneva",
					"numoutlets" : 2,
					"triscale" : 0.9,
					"outlettype" : [ "int", "bang" ],
					"htextcolor" : [ 0.870588, 0.870588, 0.870588, 1.0 ],
					"fontsize" : 9.0,
					"bgcolor" : [ 0.866667, 0.866667, 0.866667, 1.0 ],
					"numinlets" : 1
				}

			}
, 			{
				"box" : 				{
					"maxclass" : "number",
					"patching_rect" : [ 101.0, 131.0, 35.0, 19.0 ],
					"id" : "obj-33",
					"fontname" : "Geneva",
					"numoutlets" : 2,
					"triscale" : 0.9,
					"outlettype" : [ "int", "bang" ],
					"htextcolor" : [ 0.870588, 0.870588, 0.870588, 1.0 ],
					"fontsize" : 9.0,
					"bgcolor" : [ 0.866667, 0.866667, 0.866667, 1.0 ],
					"numinlets" : 1
				}

			}
, 			{
				"box" : 				{
					"maxclass" : "number",
					"patching_rect" : [ 59.0, 131.0, 35.0, 19.0 ],
					"id" : "obj-34",
					"fontname" : "Geneva",
					"numoutlets" : 2,
					"triscale" : 0.9,
					"outlettype" : [ "int", "bang" ],
					"htextcolor" : [ 0.870588, 0.870588, 0.870588, 1.0 ],
					"fontsize" : 9.0,
					"bgcolor" : [ 0.866667, 0.866667, 0.866667, 1.0 ],
					"numinlets" : 1
				}

			}
, 			{
				"box" : 				{
					"maxclass" : "number",
					"patching_rect" : [ 17.0, 131.0, 35.0, 19.0 ],
					"id" : "obj-35",
					"fontname" : "Geneva",
					"numoutlets" : 2,
					"triscale" : 0.9,
					"outlettype" : [ "int", "bang" ],
					"htextcolor" : [ 0.870588, 0.870588, 0.870588, 1.0 ],
					"fontsize" : 9.0,
					"bgcolor" : [ 0.866667, 0.866667, 0.866667, 1.0 ],
					"numinlets" : 1
				}

			}
, 			{
				"box" : 				{
					"maxclass" : "number",
					"patching_rect" : [ 17.0, 80.0, 35.0, 19.0 ],
					"id" : "obj-36",
					"fontname" : "Geneva",
					"numoutlets" : 2,
					"triscale" : 0.9,
					"outlettype" : [ "int", "bang" ],
					"htextcolor" : [ 0.870588, 0.870588, 0.870588, 1.0 ],
					"fontsize" : 9.0,
					"bgcolor" : [ 0.866667, 0.866667, 0.866667, 1.0 ],
					"numinlets" : 1
				}

			}
, 			{
				"box" : 				{
					"maxclass" : "newobj",
					"text" : "pf",
					"patching_rect" : [ 17.0, 106.0, 481.0, 19.0 ],
					"id" : "obj-37",
					"fontname" : "Geneva",
					"numoutlets" : 12,
					"outlettype" : [ "int", "int", "int", "int", "int", "int", "int", "int", "int", "int", "int", "int" ],
					"fontsize" : 9.0,
					"numinlets" : 1
				}

			}
, 			{
				"box" : 				{
					"maxclass" : "comment",
					"text" : "integer input",
					"patching_rect" : [ 54.0, 81.0, 100.0, 19.0 ],
					"id" : "obj-38",
					"fontname" : "Geneva",
					"numoutlets" : 0,
					"fontsize" : 9.0,
					"numinlets" : 1
				}

			}
, 			{
				"box" : 				{
					"maxclass" : "comment",
					"text" : "2^",
					"patching_rect" : [ 17.0, 155.0, 21.0, 19.0 ],
					"id" : "obj-39",
					"fontname" : "Geneva",
					"numoutlets" : 0,
					"fontsize" : 9.0,
					"numinlets" : 1
				}

			}
 ],
		"lines" : [ 			{
				"patchline" : 				{
					"source" : [ "obj-3", 0 ],
					"destination" : [ "obj-4", 0 ],
					"hidden" : 0,
					"midpoints" : [  ]
				}

			}
, 			{
				"patchline" : 				{
					"source" : [ "obj-9", 2 ],
					"destination" : [ "obj-3", 0 ],
					"hidden" : 0,
					"midpoints" : [  ]
				}

			}
, 			{
				"patchline" : 				{
					"source" : [ "obj-6", 1 ],
					"destination" : [ "obj-5", 0 ],
					"hidden" : 0,
					"midpoints" : [  ]
				}

			}
, 			{
				"patchline" : 				{
					"source" : [ "obj-1", 0 ],
					"destination" : [ "obj-2", 0 ],
					"hidden" : 0,
					"midpoints" : [ 470.5, 261.0, 488.5, 261.0 ]
				}

			}
, 			{
				"patchline" : 				{
					"source" : [ "obj-9", 2 ],
					"destination" : [ "obj-2", 0 ],
					"hidden" : 0,
					"midpoints" : [ 515.5, 171.0, 534.0, 171.0, 534.0, 261.0, 488.5, 261.0 ]
				}

			}
, 			{
				"patchline" : 				{
					"source" : [ "obj-6", 0 ],
					"destination" : [ "obj-8", 0 ],
					"hidden" : 0,
					"midpoints" : [  ]
				}

			}
, 			{
				"patchline" : 				{
					"source" : [ "obj-7", 0 ],
					"destination" : [ "obj-6", 0 ],
					"hidden" : 0,
					"midpoints" : [  ]
				}

			}
, 			{
				"patchline" : 				{
					"source" : [ "obj-4", 0 ],
					"destination" : [ "obj-6", 0 ],
					"hidden" : 0,
					"midpoints" : [  ]
				}

			}
, 			{
				"patchline" : 				{
					"source" : [ "obj-9", 0 ],
					"destination" : [ "obj-7", 0 ],
					"hidden" : 0,
					"midpoints" : [  ]
				}

			}
, 			{
				"patchline" : 				{
					"source" : [ "obj-9", 1 ],
					"destination" : [ "obj-7", 0 ],
					"hidden" : 0,
					"midpoints" : [  ]
				}

			}
, 			{
				"patchline" : 				{
					"source" : [ "obj-24", 0 ],
					"destination" : [ "obj-9", 0 ],
					"hidden" : 0,
					"midpoints" : [  ]
				}

			}
, 			{
				"patchline" : 				{
					"source" : [ "obj-37", 11 ],
					"destination" : [ "obj-24", 0 ],
					"hidden" : 0,
					"midpoints" : [  ]
				}

			}
, 			{
				"patchline" : 				{
					"source" : [ "obj-9", 0 ],
					"destination" : [ "obj-1", 0 ],
					"hidden" : 0,
					"midpoints" : [  ]
				}

			}
, 			{
				"patchline" : 				{
					"source" : [ "obj-9", 1 ],
					"destination" : [ "obj-1", 0 ],
					"hidden" : 0,
					"midpoints" : [  ]
				}

			}
, 			{
				"patchline" : 				{
					"source" : [ "obj-37", 10 ],
					"destination" : [ "obj-25", 0 ],
					"hidden" : 0,
					"midpoints" : [  ]
				}

			}
, 			{
				"patchline" : 				{
					"source" : [ "obj-37", 9 ],
					"destination" : [ "obj-26", 0 ],
					"hidden" : 0,
					"midpoints" : [  ]
				}

			}
, 			{
				"patchline" : 				{
					"source" : [ "obj-37", 8 ],
					"destination" : [ "obj-27", 0 ],
					"hidden" : 0,
					"midpoints" : [  ]
				}

			}
, 			{
				"patchline" : 				{
					"source" : [ "obj-37", 7 ],
					"destination" : [ "obj-28", 0 ],
					"hidden" : 0,
					"midpoints" : [  ]
				}

			}
, 			{
				"patchline" : 				{
					"source" : [ "obj-37", 6 ],
					"destination" : [ "obj-29", 0 ],
					"hidden" : 0,
					"midpoints" : [  ]
				}

			}
, 			{
				"patchline" : 				{
					"source" : [ "obj-37", 5 ],
					"destination" : [ "obj-30", 0 ],
					"hidden" : 0,
					"midpoints" : [  ]
				}

			}
, 			{
				"patchline" : 				{
					"source" : [ "obj-37", 4 ],
					"destination" : [ "obj-31", 0 ],
					"hidden" : 0,
					"midpoints" : [  ]
				}

			}
, 			{
				"patchline" : 				{
					"source" : [ "obj-37", 3 ],
					"destination" : [ "obj-32", 0 ],
					"hidden" : 0,
					"midpoints" : [  ]
				}

			}
, 			{
				"patchline" : 				{
					"source" : [ "obj-37", 2 ],
					"destination" : [ "obj-33", 0 ],
					"hidden" : 0,
					"midpoints" : [  ]
				}

			}
, 			{
				"patchline" : 				{
					"source" : [ "obj-37", 1 ],
					"destination" : [ "obj-34", 0 ],
					"hidden" : 0,
					"midpoints" : [  ]
				}

			}
, 			{
				"patchline" : 				{
					"source" : [ "obj-37", 0 ],
					"destination" : [ "obj-35", 0 ],
					"hidden" : 0,
					"midpoints" : [  ]
				}

			}
, 			{
				"patchline" : 				{
					"source" : [ "obj-36", 0 ],
					"destination" : [ "obj-37", 0 ],
					"hidden" : 0,
					"midpoints" : [  ]
				}

			}
 ]
	}

}
